<?xml version="1.0" standalone="no"?>
<!DOCTYPE svg PUBLIC "-//W3C//DTD SVG 20010904//EN"
 "http://www.w3.org/TR/2001/REC-SVG-20010904/DTD/svg10.dtd">
<svg version="1.0" xmlns="http://www.w3.org/2000/svg"
 width="700.000000pt" height="700.000000pt" viewBox="0 0 700.000000 700.000000"
 preserveAspectRatio="xMidYMid meet">
<metadata>
Created by potrace 1.11, written by Peter Selinger 2001-2013
</metadata>
<g transform="translate(0.000000,700.000000) scale(0.100000,-0.100000)"
fill="#000000" stroke="none">
<path d="M4817 6069 c-252 -61 -540 -242 -896 -564 -178 -161 -519 -505 -707
-715 -27 -30 -51 -57 -54 -60 -3 -3 -41 -45 -85 -95 -44 -49 -82 -92 -85 -95
-3 -3 -41 -48 -85 -100 -44 -52 -93 -108 -108 -125 -15 -16 -35 -42 -43 -57
-8 -15 -20 -31 -27 -35 -22 -14 -214 -257 -221 -280 -4 -13 -9 -35 -12 -50 -3
-16 -7 -36 -10 -45 -6 -21 -9 -33 -30 -138 -9 -47 -20 -89 -24 -93 -4 -4 -12
11 -19 33 -13 45 -50 75 -80 65 -20 -6 -131 -144 -223 -275 -36 -52 -47 -77
-52 -122 -4 -30 -8 -64 -10 -74 -2 -11 -7 -46 -11 -79 -3 -33 -8 -73 -10 -90
-3 -16 -7 -48 -10 -70 -2 -22 -7 -64 -11 -93 -3 -29 -7 -62 -9 -72 -2 -10 -7
-50 -10 -87 -4 -37 -8 -75 -10 -83 -2 -8 -7 -40 -10 -70 -8 -84 -20 -173 -31
-245 -3 -16 -33 -72 -66 -124 -143 -221 -208 -334 -208 -361 0 -31 30 -60 62
-60 9 0 29 -5 45 -11 l28 -11 -25 -13 c-14 -8 -32 -14 -40 -15 -8 0 -43 -13
-77 -29 -70 -34 -99 -73 -88 -122 9 -39 84 -103 154 -131 50 -20 74 -22 221
-22 91 0 192 3 225 6 67 8 83 10 240 33 150 22 147 22 256 39 53 9 116 18 140
21 24 3 54 7 66 9 12 3 57 8 100 11 43 4 87 9 98 11 34 7 241 5 271 -2 111
-27 95 -99 -31 -136 -62 -18 -104 -21 -365 -24 -162 -2 -315 -5 -340 -5 -74
-2 -191 -29 -221 -51 -50 -37 -63 -110 -29 -166 44 -72 127 -95 334 -91 359 6
429 4 465 -15 45 -24 31 -32 -78 -45 -112 -14 -155 -27 -190 -57 -48 -40 -55
-103 -21 -181 23 -51 58 -72 95 -55 32 15 41 52 21 90 -9 17 -16 38 -16 46 0
15 54 30 145 41 69 8 94 15 136 36 93 46 69 183 -40 232 -74 33 -103 34 -531
27 -114 -2 -153 1 -182 13 -47 20 -48 33 -5 43 54 12 82 13 387 14 326 2 438
14 529 56 65 30 107 74 122 128 22 83 -12 150 -98 192 -56 28 -62 29 -218 29
-165 0 -234 -5 -415 -31 -58 -8 -123 -17 -145 -20 -22 -3 -42 -7 -45 -9 -3 -1
-30 -6 -61 -9 -31 -4 -65 -8 -75 -10 -11 -2 -41 -7 -67 -10 -27 -4 -57 -9 -67
-11 -87 -17 -242 -29 -370 -29 -127 -1 -164 2 -202 17 -27 10 -48 23 -48 28 0
5 2 9 4 9 2 0 48 15 101 34 58 21 109 46 126 62 56 54 27 118 -73 163 l-58 27
98 153 98 153 465 199 c255 109 474 204 486 210 11 6 29 32 39 58 61 161 192
379 349 579 38 49 42 58 34 86 -13 44 -12 46 15 46 40 0 71 16 107 56 115 129
418 422 553 535 16 13 41 35 56 49 15 14 56 50 91 80 153 132 530 521 685 705
32 39 65 76 72 84 35 36 248 328 307 421 71 112 153 273 180 355 21 60 28 167
14 203 -22 57 -68 89 -214 147 -141 57 -286 68 -428 34z"/>
</g>
</svg>
